<mxfile host="65bd71144e">
    <diagram id="g2DqvVRs4uAkMcymfNZp" name="Page-1">
        <mxGraphModel dx="3474" dy="1894" grid="1" gridSize="10" guides="1" tooltips="1" connect="1" arrows="1" fold="1" page="1" pageScale="1" pageWidth="850" pageHeight="1100" math="0" shadow="0">
            <root>
                <mxCell id="0"/>
                <mxCell id="1" parent="0"/>
                <mxCell id="9" value="&lt;table border=&quot;1&quot; width=&quot;100%&quot; height=&quot;100%&quot; cellpadding=&quot;4&quot; style=&quot;width:100%;height:100%;border-collapse:collapse;&quot;&gt;&lt;tbody&gt;&lt;tr&gt;&lt;th style=&quot;text-align: center;&quot;&gt;inventory_supplier&lt;/th&gt;&lt;/tr&gt;&lt;tr&gt;&lt;td&gt;+id: Biginteger&lt;br&gt;+name: string&lt;br&gt;+contact_person: string&lt;br&gt;+phone: String&lt;br&gt;+email: String&lt;br&gt;+adress: Text&lt;br&gt;+created_at: DateTime&lt;/td&gt;&lt;/tr&gt;&lt;tr&gt;&lt;td&gt;&lt;br&gt;&lt;/td&gt;&lt;/tr&gt;&lt;/tbody&gt;&lt;/table&gt;" style="text;html=1;whiteSpace=wrap;strokeColor=none;fillColor=none;overflow=fill;align=left;" parent="1" vertex="1">
                    <mxGeometry x="-500" y="520" width="180" height="190" as="geometry"/>
                </mxCell>
                <mxCell id="10" value="&lt;table border=&quot;1&quot; width=&quot;100%&quot; height=&quot;100%&quot; cellpadding=&quot;4&quot; style=&quot;width:100%;height:100%;border-collapse:collapse;&quot;&gt;&lt;tbody&gt;&lt;tr&gt;&lt;th align=&quot;center&quot;&gt;auth_user&lt;/th&gt;&lt;/tr&gt;&lt;tr&gt;&lt;td&gt;+id: Biginteger&lt;br&gt;+password: string&lt;br&gt;+last_login: DateTime&lt;br&gt;+is_superuser: Bool&lt;br&gt;+username: string&lt;br&gt;+ first_name: string&lt;br&gt;+ last_name: string&lt;br&gt;+email: string&lt;br&gt;+is_staff: bool&lt;br&gt;+is_active: bool&lt;br&gt;+date_joined: DateTime&lt;/td&gt;&lt;/tr&gt;&lt;tr&gt;&lt;td&gt;&lt;br&gt;&lt;/td&gt;&lt;/tr&gt;&lt;/tbody&gt;&lt;/table&gt;" style="text;html=1;whiteSpace=wrap;strokeColor=none;fillColor=none;overflow=fill;" parent="1" vertex="1">
                    <mxGeometry x="-530" y="-90" width="180" height="220" as="geometry"/>
                </mxCell>
                <mxCell id="13" value="&lt;table border=&quot;1&quot; width=&quot;100%&quot; height=&quot;100%&quot; cellpadding=&quot;4&quot; style=&quot;width:100%;height:100%;border-collapse:collapse;&quot;&gt;&lt;tbody&gt;&lt;tr&gt;&lt;th align=&quot;center&quot;&gt;auth_group_permissions&lt;/th&gt;&lt;/tr&gt;&lt;tr&gt;&lt;td&gt;+id: Biginteger&lt;br&gt;&lt;/td&gt;&lt;/tr&gt;&lt;tr&gt;&lt;td&gt;&lt;br&gt;&lt;/td&gt;&lt;/tr&gt;&lt;/tbody&gt;&lt;/table&gt;" style="text;html=1;whiteSpace=wrap;strokeColor=none;fillColor=none;overflow=fill;" parent="1" vertex="1">
                    <mxGeometry x="-800" y="-90" width="160" height="80" as="geometry"/>
                </mxCell>
                <mxCell id="14" value="&lt;table border=&quot;1&quot; width=&quot;100%&quot; height=&quot;100%&quot; cellpadding=&quot;4&quot; style=&quot;width:100%;height:100%;border-collapse:collapse;&quot;&gt;&lt;tbody&gt;&lt;tr&gt;&lt;th align=&quot;center&quot;&gt;auth_permission&lt;/th&gt;&lt;/tr&gt;&lt;tr&gt;&lt;td&gt;+id: Biginteger&lt;br&gt;&lt;/td&gt;&lt;/tr&gt;&lt;/tbody&gt;&lt;/table&gt;" style="text;html=1;whiteSpace=wrap;strokeColor=none;fillColor=none;overflow=fill;" parent="1" vertex="1">
                    <mxGeometry x="-800" y="-230" width="160" height="80" as="geometry"/>
                </mxCell>
                <mxCell id="16" value="&lt;table border=&quot;1&quot; width=&quot;100%&quot; height=&quot;100%&quot; cellpadding=&quot;4&quot; style=&quot;width:100%;height:100%;border-collapse:collapse;&quot;&gt;&lt;tbody&gt;&lt;tr&gt;&lt;th align=&quot;center&quot;&gt;auth_user_groups&lt;/th&gt;&lt;/tr&gt;&lt;tr&gt;&lt;td&gt;+id: Biginteger&lt;br&gt;&lt;/td&gt;&lt;/tr&gt;&lt;tr&gt;&lt;td&gt;&lt;br&gt;&lt;/td&gt;&lt;/tr&gt;&lt;/tbody&gt;&lt;/table&gt;" style="text;html=1;whiteSpace=wrap;strokeColor=none;fillColor=none;overflow=fill;" parent="1" vertex="1">
                    <mxGeometry x="-790" y="240" width="140" height="100" as="geometry"/>
                </mxCell>
                <mxCell id="17" value="&lt;table border=&quot;1&quot; width=&quot;100%&quot; height=&quot;100%&quot; cellpadding=&quot;4&quot; style=&quot;width:100%;height:100%;border-collapse:collapse;&quot;&gt;&lt;tbody&gt;&lt;tr&gt;&lt;th align=&quot;center&quot;&gt;auth_user_user_permissions&lt;/th&gt;&lt;/tr&gt;&lt;tr&gt;&lt;td&gt;+id: Biginteger&lt;br&gt;&lt;/td&gt;&lt;/tr&gt;&lt;tr&gt;&lt;td&gt;&lt;br&gt;&lt;/td&gt;&lt;/tr&gt;&lt;/tbody&gt;&lt;/table&gt;" style="text;html=1;whiteSpace=wrap;strokeColor=none;fillColor=none;overflow=fill;" parent="1" vertex="1">
                    <mxGeometry x="-640" y="370" width="180" height="120" as="geometry"/>
                </mxCell>
                <mxCell id="18" value="&lt;table border=&quot;1&quot; width=&quot;100%&quot; height=&quot;100%&quot; cellpadding=&quot;4&quot; style=&quot;width:100%;height:100%;border-collapse:collapse;&quot;&gt;&lt;tbody&gt;&lt;tr&gt;&lt;th align=&quot;center&quot;&gt;inventory_category&lt;/th&gt;&lt;/tr&gt;&lt;tr&gt;&lt;td&gt;+id: Biginteger&lt;br&gt;+name: string&lt;br&gt;+description: text&lt;br&gt;+created_at: DateTime&lt;/td&gt;&lt;/tr&gt;&lt;tr&gt;&lt;td&gt;&lt;br&gt;&lt;/td&gt;&lt;/tr&gt;&lt;/tbody&gt;&lt;/table&gt;" style="text;html=1;whiteSpace=wrap;strokeColor=none;fillColor=none;overflow=fill;" parent="1" vertex="1">
                    <mxGeometry x="-230" y="520" width="180" height="220" as="geometry"/>
                </mxCell>
                <mxCell id="19" value="&lt;table border=&quot;1&quot; width=&quot;100%&quot; height=&quot;100%&quot; cellpadding=&quot;4&quot; style=&quot;width:100%;height:100%;border-collapse:collapse;&quot;&gt;&lt;tbody&gt;&lt;tr&gt;&lt;th align=&quot;center&quot;&gt;inventory_medicine&lt;/th&gt;&lt;/tr&gt;&lt;tr&gt;&lt;td&gt;+id: Biginteger&lt;br&gt;+name: string&lt;br&gt;+generic_name: string&lt;br&gt;+form: string&lt;br&gt;+strength: string&lt;br&gt;+barcode: string&lt;br&gt;+price:&amp;nbsp;numeric&lt;br&gt;+quantity: integer&lt;br&gt;+min_quantity: integer&lt;br&gt;+expiry_date: Date&lt;br&gt;+image: string&lt;br&gt;+description: text&lt;br&gt;+created_at: DateTime&lt;br&gt;+updated_at: DateTime&lt;br&gt;&lt;/td&gt;&lt;/tr&gt;&lt;tr&gt;&lt;td&gt;&lt;br&gt;&lt;/td&gt;&lt;/tr&gt;&lt;/tbody&gt;&lt;/table&gt;" style="text;html=1;whiteSpace=wrap;strokeColor=none;fillColor=none;overflow=fill;" parent="1" vertex="1">
                    <mxGeometry x="-230" y="170" width="180" height="280" as="geometry"/>
                </mxCell>
                <mxCell id="21" value="&lt;table border=&quot;1&quot; width=&quot;100%&quot; height=&quot;100%&quot; cellpadding=&quot;4&quot; style=&quot;width:100%;height:100%;border-collapse:collapse;&quot;&gt;&lt;tbody&gt;&lt;tr&gt;&lt;th align=&quot;center&quot;&gt;inventory_stockmovement&lt;/th&gt;&lt;/tr&gt;&lt;tr&gt;&lt;td&gt;+id: Biginteger&lt;br&gt;+movement_type: string&lt;br&gt;+quantity: integer&lt;br&gt;+previous_quantity: integer&lt;br&gt;+new_quantity:&amp;nbsp;&lt;span style=&quot;color: rgb(63, 63, 63);&quot;&gt;integer&lt;/span&gt;&lt;br&gt;+reason: string&lt;br&gt;+created_at:&amp;nbsp;DateTime&lt;br&gt;&lt;br&gt;&lt;/td&gt;&lt;/tr&gt;&lt;tr&gt;&lt;td&gt;&lt;br&gt;&lt;/td&gt;&lt;/tr&gt;&lt;/tbody&gt;&lt;/table&gt;" style="text;html=1;whiteSpace=wrap;strokeColor=none;fillColor=none;overflow=fill;" parent="1" vertex="1">
                    <mxGeometry x="-230" y="-90" width="180" height="180" as="geometry"/>
                </mxCell>
                <mxCell id="22" value="&lt;table border=&quot;1&quot; width=&quot;100%&quot; height=&quot;100%&quot; cellpadding=&quot;4&quot; style=&quot;width:100%;height:100%;border-collapse:collapse;&quot;&gt;&lt;tbody&gt;&lt;tr&gt;&lt;th align=&quot;center&quot;&gt;sales_customer&lt;/th&gt;&lt;/tr&gt;&lt;tr&gt;&lt;td&gt;+id: Biginteger&lt;br&gt;+name: string&lt;br&gt;+phone: string&lt;br&gt;+email: string&lt;br&gt;+adress: text&lt;br&gt;+created_at:&amp;nbsp;DateTime&lt;br&gt;&lt;br&gt;&lt;/td&gt;&lt;/tr&gt;&lt;tr&gt;&lt;td&gt;&lt;br&gt;&lt;/td&gt;&lt;/tr&gt;&lt;/tbody&gt;&lt;/table&gt;" style="text;html=1;whiteSpace=wrap;strokeColor=none;fillColor=none;overflow=fill;" parent="1" vertex="1">
                    <mxGeometry x="-515" y="-720" width="180" height="180" as="geometry"/>
                </mxCell>
                <mxCell id="23" value="&lt;table border=&quot;1&quot; width=&quot;100%&quot; height=&quot;100%&quot; cellpadding=&quot;4&quot; style=&quot;width:100%;height:100%;border-collapse:collapse;&quot;&gt;&lt;tbody&gt;&lt;tr&gt;&lt;th align=&quot;center&quot;&gt;sales_sale&lt;/th&gt;&lt;/tr&gt;&lt;tr&gt;&lt;td&gt;+id: Biginteger&lt;br&gt;+sale_number: string&lt;br&gt;+total_amount: numeric&lt;br&gt;+payment_method: string&lt;br&gt;+discount: numeric&lt;br&gt;+notes: text&lt;br&gt;+created_at: DateTime&lt;br&gt;&lt;br&gt;&lt;/td&gt;&lt;/tr&gt;&lt;tr&gt;&lt;td&gt;&lt;br&gt;&lt;/td&gt;&lt;/tr&gt;&lt;/tbody&gt;&lt;/table&gt;" style="text;html=1;whiteSpace=wrap;strokeColor=none;fillColor=none;overflow=fill;" parent="1" vertex="1">
                    <mxGeometry x="-515" y="-460" width="180" height="180" as="geometry"/>
                </mxCell>
                <mxCell id="24" value="&lt;table border=&quot;1&quot; width=&quot;100%&quot; height=&quot;100%&quot; cellpadding=&quot;4&quot; style=&quot;width:100%;height:100%;border-collapse:collapse;&quot;&gt;&lt;tbody&gt;&lt;tr&gt;&lt;th align=&quot;center&quot;&gt;sales_saleitem&lt;/th&gt;&lt;/tr&gt;&lt;tr&gt;&lt;td&gt;+id: Biginteger&lt;br&gt;+quantity: integer&lt;br&gt;+unit_price: numeric&lt;br&gt;+total_price: numeric&lt;br&gt;&lt;br&gt;&lt;/td&gt;&lt;/tr&gt;&lt;tr&gt;&lt;td&gt;&lt;br&gt;&lt;/td&gt;&lt;/tr&gt;&lt;/tbody&gt;&lt;/table&gt;" style="text;html=1;whiteSpace=wrap;strokeColor=none;fillColor=none;overflow=fill;" parent="1" vertex="1">
                    <mxGeometry x="-160" y="-460" width="140" height="140" as="geometry"/>
                </mxCell>
                <mxCell id="27" value="&lt;table border=&quot;1&quot; width=&quot;100%&quot; height=&quot;100%&quot; cellpadding=&quot;4&quot; style=&quot;width:100%;height:100%;border-collapse:collapse;&quot;&gt;&lt;tbody&gt;&lt;tr&gt;&lt;th align=&quot;center&quot;&gt;django_content_type&lt;/th&gt;&lt;/tr&gt;&lt;tr&gt;&lt;td&gt;&lt;span style=&quot;color: rgb(63, 63, 63);&quot;&gt;+id: Biginteger&lt;/span&gt;&lt;br style=&quot;color: rgb(63, 63, 63);&quot;&gt;&lt;/td&gt;&lt;/tr&gt;&lt;/tbody&gt;&lt;/table&gt;" style="text;html=1;whiteSpace=wrap;strokeColor=none;fillColor=none;overflow=fill;" parent="1" vertex="1">
                    <mxGeometry x="-800" y="-415" width="160" height="70" as="geometry"/>
                </mxCell>
                <mxCell id="28" value="" style="endArrow=none;html=1;exitX=0.62;exitY=0.008;exitDx=0;exitDy=0;exitPerimeter=0;entryX=0.619;entryY=1;entryDx=0;entryDy=0;entryPerimeter=0;" parent="1" source="13" edge="1">
                    <mxGeometry width="50" height="50" relative="1" as="geometry">
                        <mxPoint x="-420" as="sourcePoint"/>
                        <mxPoint x="-700.96" y="-150" as="targetPoint"/>
                    </mxGeometry>
                </mxCell>
                <mxCell id="29" value="" style="endArrow=none;html=1;exitX=0.5;exitY=1;exitDx=0;exitDy=0;entryX=0.5;entryY=0;entryDx=0;entryDy=0;" parent="1" source="27" target="14" edge="1">
                    <mxGeometry width="50" height="50" relative="1" as="geometry">
                        <mxPoint x="-780.0000000000001" y="-280" as="sourcePoint"/>
                        <mxPoint x="-450.64" y="-278" as="targetPoint"/>
                    </mxGeometry>
                </mxCell>
                <mxCell id="30" value="&lt;table border=&quot;1&quot; width=&quot;100%&quot; height=&quot;100%&quot; cellpadding=&quot;4&quot; style=&quot;width:100%;height:100%;border-collapse:collapse;&quot;&gt;&lt;tbody&gt;&lt;tr&gt;&lt;th align=&quot;center&quot;&gt;auth_group&lt;/th&gt;&lt;/tr&gt;&lt;tr&gt;&lt;td&gt;+id: Biginteger&lt;br&gt;+name: string&lt;br&gt;&lt;/td&gt;&lt;/tr&gt;&lt;tr&gt;&lt;td&gt;&lt;br&gt;&lt;/td&gt;&lt;/tr&gt;&lt;/tbody&gt;&lt;/table&gt;" style="text;html=1;whiteSpace=wrap;strokeColor=none;fillColor=none;overflow=fill;" parent="1" vertex="1">
                    <mxGeometry x="-800" y="70" width="160" height="90" as="geometry"/>
                </mxCell>
                <mxCell id="31" value="" style="endArrow=none;html=1;exitX=0.5;exitY=0;exitDx=0;exitDy=0;entryX=0.619;entryY=1;entryDx=0;entryDy=0;entryPerimeter=0;" parent="1" source="30" edge="1">
                    <mxGeometry width="50" height="50" relative="1" as="geometry">
                        <mxPoint x="-720.5" y="51" as="sourcePoint"/>
                        <mxPoint x="-720.46" y="-10" as="targetPoint"/>
                    </mxGeometry>
                </mxCell>
                <mxCell id="32" value="" style="endArrow=none;html=1;entryX=0.5;entryY=1;entryDx=0;entryDy=0;" edge="1" parent="1">
                    <mxGeometry width="50" height="50" relative="1" as="geometry">
                        <mxPoint x="-720" y="240" as="sourcePoint"/>
                        <mxPoint x="-720.5" y="160" as="targetPoint"/>
                    </mxGeometry>
                </mxCell>
                <mxCell id="34" value="" style="endArrow=none;html=1;exitX=0.011;exitY=0.417;exitDx=0;exitDy=0;exitPerimeter=0;entryX=0;entryY=0.5;entryDx=0;entryDy=0;" edge="1" parent="1" source="17" target="14">
                    <mxGeometry width="50" height="50" relative="1" as="geometry">
                        <mxPoint x="-650" y="419.96000000000004" as="sourcePoint"/>
                        <mxPoint x="-810" y="-210" as="targetPoint"/>
                        <Array as="points">
                            <mxPoint x="-840" y="420"/>
                            <mxPoint x="-840" y="-190"/>
                        </Array>
                    </mxGeometry>
                </mxCell>
                <mxCell id="35" value="" style="endArrow=none;html=1;entryX=0.011;entryY=0.955;entryDx=0;entryDy=0;entryPerimeter=0;" edge="1" parent="1" target="10">
                    <mxGeometry width="50" height="50" relative="1" as="geometry">
                        <mxPoint x="-559.5" y="370" as="sourcePoint"/>
                        <mxPoint x="-560" y="80" as="targetPoint"/>
                        <Array as="points">
                            <mxPoint x="-559" y="280"/>
                            <mxPoint x="-560" y="120"/>
                        </Array>
                    </mxGeometry>
                </mxCell>
                <mxCell id="37" value="" style="endArrow=none;html=1;exitX=1;exitY=0.5;exitDx=0;exitDy=0;entryX=0.007;entryY=0.655;entryDx=0;entryDy=0;entryPerimeter=0;" edge="1" parent="1" source="16" target="10">
                    <mxGeometry width="50" height="50" relative="1" as="geometry">
                        <mxPoint x="-619.5" y="295" as="sourcePoint"/>
                        <mxPoint x="-620" y="80" as="targetPoint"/>
                        <Array as="points">
                            <mxPoint x="-620" y="290"/>
                            <mxPoint x="-620" y="54"/>
                        </Array>
                    </mxGeometry>
                </mxCell>
                <mxCell id="38" value="" style="endArrow=none;html=1;exitX=0.996;exitY=0.409;exitDx=0;exitDy=0;entryX=0;entryY=0.5;entryDx=0;entryDy=0;exitPerimeter=0;" edge="1" parent="1" source="10" target="21">
                    <mxGeometry width="50" height="50" relative="1" as="geometry">
                        <mxPoint x="-279.54" y="50" as="sourcePoint"/>
                        <mxPoint x="-280.00000000000006" y="-30" as="targetPoint"/>
                    </mxGeometry>
                </mxCell>
                <mxCell id="39" value="" style="endArrow=none;html=1;entryX=0.5;entryY=1;entryDx=0;entryDy=0;" edge="1" parent="1">
                    <mxGeometry width="50" height="50" relative="1" as="geometry">
                        <mxPoint x="-140" y="170" as="sourcePoint"/>
                        <mxPoint x="-140.5" y="90" as="targetPoint"/>
                    </mxGeometry>
                </mxCell>
                <mxCell id="41" value="" style="endArrow=none;html=1;entryX=0.5;entryY=1;entryDx=0;entryDy=0;" edge="1" parent="1">
                    <mxGeometry width="50" height="50" relative="1" as="geometry">
                        <mxPoint x="-140" y="520" as="sourcePoint"/>
                        <mxPoint x="-140.5" y="450" as="targetPoint"/>
                    </mxGeometry>
                </mxCell>
                <mxCell id="42" value="" style="endArrow=none;html=1;exitX=0.207;exitY=0.994;exitDx=0;exitDy=0;entryX=0.028;entryY=0.295;entryDx=0;entryDy=0;entryPerimeter=0;exitPerimeter=0;" edge="1" parent="1" source="47" target="10">
                    <mxGeometry width="50" height="50" relative="1" as="geometry">
                        <mxPoint x="-440.5" y="-210" as="sourcePoint"/>
                        <mxPoint x="-440.5" y="-95" as="targetPoint"/>
                        <Array as="points">
                            <mxPoint x="-583" y="-25"/>
                        </Array>
                    </mxGeometry>
                </mxCell>
                <mxCell id="43" value="" style="endArrow=none;html=1;exitX=0.5;exitY=1;exitDx=0;exitDy=0;fontStyle=1" edge="1" parent="1">
                    <mxGeometry width="50" height="50" relative="1" as="geometry">
                        <mxPoint x="-426" y="-540" as="sourcePoint"/>
                        <mxPoint x="-425.5" y="-460" as="targetPoint"/>
                    </mxGeometry>
                </mxCell>
                <mxCell id="44" value="" style="endArrow=none;html=1;exitX=0;exitY=0.5;exitDx=0;exitDy=0;entryX=0.978;entryY=0.381;entryDx=0;entryDy=0;entryPerimeter=0;" edge="1" parent="1" source="24" target="23">
                    <mxGeometry width="50" height="50" relative="1" as="geometry">
                        <mxPoint x="-430.5" y="-460" as="sourcePoint"/>
                        <mxPoint x="-430" y="-380" as="targetPoint"/>
                    </mxGeometry>
                </mxCell>
                <mxCell id="45" value="" style="endArrow=none;html=1;entryX=0.011;entryY=0.681;entryDx=0;entryDy=0;entryPerimeter=0;" edge="1" parent="1" target="19">
                    <mxGeometry width="50" height="50" relative="1" as="geometry">
                        <mxPoint x="-410" y="520" as="sourcePoint"/>
                        <mxPoint x="-410.5" y="450" as="targetPoint"/>
                        <Array as="points">
                            <mxPoint x="-410" y="360"/>
                        </Array>
                    </mxGeometry>
                </mxCell>
                <mxCell id="46" value="" style="endArrow=none;html=1;exitX=1;exitY=0.25;exitDx=0;exitDy=0;entryX=1.025;entryY=0.421;entryDx=0;entryDy=0;entryPerimeter=0;" edge="1" parent="1" source="19" target="24">
                    <mxGeometry width="50" height="50" relative="1" as="geometry">
                        <mxPoint x="30" y="240" as="sourcePoint"/>
                        <mxPoint x="30" y="-400" as="targetPoint"/>
                        <Array as="points">
                            <mxPoint x="30" y="240"/>
                            <mxPoint x="30" y="-345"/>
                            <mxPoint x="30" y="-400"/>
                        </Array>
                    </mxGeometry>
                </mxCell>
                <mxCell id="47" value="&lt;table border=&quot;1&quot; width=&quot;100%&quot; height=&quot;100%&quot; cellpadding=&quot;4&quot; style=&quot;width:100%;height:100%;border-collapse:collapse;&quot;&gt;&lt;tbody&gt;&lt;tr&gt;&lt;th align=&quot;center&quot;&gt;django_admin_log&lt;/th&gt;&lt;/tr&gt;&lt;tr&gt;&lt;td&gt;+id: Biginteger&lt;br&gt;&lt;br&gt;&lt;/td&gt;&lt;/tr&gt;&lt;tr&gt;&lt;td&gt;&lt;br&gt;&lt;/td&gt;&lt;/tr&gt;&lt;/tbody&gt;&lt;/table&gt;" style="text;html=1;whiteSpace=wrap;strokeColor=none;fillColor=none;overflow=fill;" vertex="1" parent="1">
                    <mxGeometry x="-620" y="-230" width="180" height="90" as="geometry"/>
                </mxCell>
                <mxCell id="48" value="" style="endArrow=none;html=1;entryX=0.66;entryY=0.009;entryDx=0;entryDy=0;exitX=0.577;exitY=1.014;exitDx=0;exitDy=0;entryPerimeter=0;exitPerimeter=0;" edge="1" parent="1" source="23" target="10">
                    <mxGeometry width="50" height="50" relative="1" as="geometry">
                        <mxPoint x="-440" y="210" as="sourcePoint"/>
                        <mxPoint x="-440.5" y="130" as="targetPoint"/>
                    </mxGeometry>
                </mxCell>
                <mxCell id="50" value="" style="endArrow=none;html=1;exitX=1;exitY=0.5;exitDx=0;exitDy=0;entryX=0.5;entryY=0;entryDx=0;entryDy=0;" edge="1" parent="1" source="27">
                    <mxGeometry width="50" height="50" relative="1" as="geometry">
                        <mxPoint x="-560" y="-345" as="sourcePoint"/>
                        <mxPoint x="-560" y="-230" as="targetPoint"/>
                        <Array as="points">
                            <mxPoint x="-560" y="-380"/>
                        </Array>
                    </mxGeometry>
                </mxCell>
                <mxCell id="51" value="1" style="text;html=1;align=center;verticalAlign=middle;whiteSpace=wrap;rounded=0;" vertex="1" parent="1">
                    <mxGeometry x="-420" y="-540" width="60" height="30" as="geometry"/>
                </mxCell>
                <mxCell id="52" value="n" style="text;html=1;align=center;verticalAlign=middle;whiteSpace=wrap;rounded=0;" vertex="1" parent="1">
                    <mxGeometry x="-500" y="-490" width="60" height="30" as="geometry"/>
                </mxCell>
                <mxCell id="56" value="1" style="text;html=1;align=center;verticalAlign=middle;whiteSpace=wrap;rounded=0;" vertex="1" parent="1">
                    <mxGeometry x="-350" y="-430" width="60" height="30" as="geometry"/>
                </mxCell>
                <mxCell id="58" value="n" style="text;html=1;align=center;verticalAlign=middle;whiteSpace=wrap;rounded=0;" vertex="1" parent="1">
                    <mxGeometry x="-210" y="-430" width="60" height="30" as="geometry"/>
                </mxCell>
                <mxCell id="59" value="n" style="text;html=1;align=center;verticalAlign=middle;whiteSpace=wrap;rounded=0;" vertex="1" parent="1">
                    <mxGeometry x="-410" y="-280" width="60" height="30" as="geometry"/>
                </mxCell>
                <mxCell id="60" value="1" style="text;html=1;align=center;verticalAlign=middle;whiteSpace=wrap;rounded=0;" vertex="1" parent="1">
                    <mxGeometry x="-410" y="-130" width="60" height="30" as="geometry"/>
                </mxCell>
                <mxCell id="61" value="1" style="text;html=1;align=center;verticalAlign=middle;whiteSpace=wrap;rounded=0;" vertex="1" parent="1">
                    <mxGeometry x="-660" y="-415" width="60" height="30" as="geometry"/>
                </mxCell>
                <mxCell id="62" value="n&lt;span style=&quot;font-family: monospace; font-size: 0px; text-align: start; text-wrap-mode: nowrap;&quot;&gt;%3CmxGraphModel%3E%3Croot%3E%3CmxCell%20id%3D%220%22%2F%3E%3CmxCell%20id%3D%221%22%20parent%3D%220%22%2F%3E%3CmxCell%20id%3D%222%22%20value%3D%221%22%20style%3D%22text%3Bhtml%3D1%3Balign%3Dcenter%3BverticalAlign%3Dmiddle%3BwhiteSpace%3Dwrap%3Brounded%3D0%3B%22%20vertex%3D%221%22%20parent%3D%221%22%3E%3CmxGeometry%20x%3D%22-420%22%20y%3D%22-540%22%20width%3D%2260%22%20height%3D%2230%22%20as%3D%22geometry%22%2F%3E%3C%2FmxCell%3E%3C%2Froot%3E%3C%2FmxGraphModel%3E&lt;/span&gt;" style="text;html=1;align=center;verticalAlign=middle;whiteSpace=wrap;rounded=0;" vertex="1" parent="1">
                    <mxGeometry x="-575" y="-260" width="60" height="30" as="geometry"/>
                </mxCell>
                <mxCell id="63" value="1" style="text;html=1;align=center;verticalAlign=middle;whiteSpace=wrap;rounded=0;" vertex="1" parent="1">
                    <mxGeometry x="-575" y="-65" width="60" height="30" as="geometry"/>
                </mxCell>
                <mxCell id="66" value="n" style="text;html=1;align=center;verticalAlign=middle;whiteSpace=wrap;rounded=0;" vertex="1" parent="1">
                    <mxGeometry x="-590" y="-140" width="60" height="30" as="geometry"/>
                </mxCell>
                <mxCell id="67" value="1" style="text;html=1;align=center;verticalAlign=middle;whiteSpace=wrap;rounded=0;" vertex="1" parent="1">
                    <mxGeometry x="-730" y="-340" width="60" height="30" as="geometry"/>
                </mxCell>
                <mxCell id="68" value="n" style="text;html=1;align=center;verticalAlign=middle;whiteSpace=wrap;rounded=0;" vertex="1" parent="1">
                    <mxGeometry x="-770" y="-260" width="60" height="30" as="geometry"/>
                </mxCell>
                <mxCell id="69" value="1" style="text;html=1;align=center;verticalAlign=middle;whiteSpace=wrap;rounded=0;" vertex="1" parent="1">
                    <mxGeometry x="-710" y="-150" width="60" height="30" as="geometry"/>
                </mxCell>
                <mxCell id="70" value="n" style="text;html=1;align=center;verticalAlign=middle;whiteSpace=wrap;rounded=0;" vertex="1" parent="1">
                    <mxGeometry x="-750" y="-120" width="60" height="30" as="geometry"/>
                </mxCell>
                <mxCell id="71" value="n" style="text;html=1;align=center;verticalAlign=middle;whiteSpace=wrap;rounded=0;" vertex="1" parent="1">
                    <mxGeometry x="-720" y="-10" width="60" height="30" as="geometry"/>
                </mxCell>
                <mxCell id="72" value="1" style="text;html=1;align=center;verticalAlign=middle;whiteSpace=wrap;rounded=0;" vertex="1" parent="1">
                    <mxGeometry x="-790" y="40" width="60" height="30" as="geometry"/>
                </mxCell>
                <mxCell id="73" value="1" style="text;html=1;align=center;verticalAlign=middle;whiteSpace=wrap;rounded=0;" vertex="1" parent="1">
                    <mxGeometry x="-720" y="160" width="60" height="30" as="geometry"/>
                </mxCell>
                <mxCell id="74" value="n" style="text;html=1;align=center;verticalAlign=middle;whiteSpace=wrap;rounded=0;" vertex="1" parent="1">
                    <mxGeometry x="-780" y="210" width="60" height="30" as="geometry"/>
                </mxCell>
                <mxCell id="75" value="1" style="text;html=1;align=center;verticalAlign=middle;whiteSpace=wrap;rounded=0;" vertex="1" parent="1">
                    <mxGeometry x="-590" y="20" width="60" height="30" as="geometry"/>
                </mxCell>
                <mxCell id="76" value="n" style="text;html=1;align=center;verticalAlign=middle;whiteSpace=wrap;rounded=0;" vertex="1" parent="1">
                    <mxGeometry x="-650" y="295" width="60" height="30" as="geometry"/>
                </mxCell>
                <mxCell id="77" value="n" style="text;html=1;align=center;verticalAlign=middle;whiteSpace=wrap;rounded=0;" vertex="1" parent="1">
                    <mxGeometry x="-560" y="340" width="60" height="30" as="geometry"/>
                </mxCell>
                <mxCell id="78" value="1" style="text;html=1;align=center;verticalAlign=middle;whiteSpace=wrap;rounded=0;" vertex="1" parent="1">
                    <mxGeometry x="-560" y="140" width="60" height="30" as="geometry"/>
                </mxCell>
                <mxCell id="79" value="n" style="text;html=1;align=center;verticalAlign=middle;whiteSpace=wrap;rounded=0;" vertex="1" parent="1">
                    <mxGeometry x="-270" y="-30" width="60" height="30" as="geometry"/>
                </mxCell>
                <mxCell id="80" value="1" style="text;html=1;align=center;verticalAlign=middle;whiteSpace=wrap;rounded=0;" vertex="1" parent="1">
                    <mxGeometry x="-360" y="10" width="60" height="30" as="geometry"/>
                </mxCell>
                <mxCell id="81" value="n" style="text;html=1;align=center;verticalAlign=middle;whiteSpace=wrap;rounded=0;" vertex="1" parent="1">
                    <mxGeometry x="-180" y="90" width="60" height="30" as="geometry"/>
                </mxCell>
                <mxCell id="82" value="1" style="text;html=1;align=center;verticalAlign=middle;whiteSpace=wrap;rounded=0;" vertex="1" parent="1">
                    <mxGeometry x="-130" y="140" width="60" height="30" as="geometry"/>
                </mxCell>
                <mxCell id="85" value="n" style="text;html=1;align=center;verticalAlign=middle;whiteSpace=wrap;rounded=0;" vertex="1" parent="1">
                    <mxGeometry x="-20" y="-430" width="60" height="30" as="geometry"/>
                </mxCell>
                <mxCell id="86" value="1" style="text;html=1;align=center;verticalAlign=middle;whiteSpace=wrap;rounded=0;" vertex="1" parent="1">
                    <mxGeometry x="-60" y="250" width="60" height="30" as="geometry"/>
                </mxCell>
                <mxCell id="87" value="n" style="text;html=1;align=center;verticalAlign=middle;whiteSpace=wrap;rounded=0;" vertex="1" parent="1">
                    <mxGeometry x="-270" y="320" width="60" height="30" as="geometry"/>
                </mxCell>
                <mxCell id="89" value="1&lt;span style=&quot;font-family: monospace; font-size: 0px; text-align: start; text-wrap-mode: nowrap;&quot;&gt;%3CmxGraphModel%3E%3Croot%3E%3CmxCell%20id%3D%220%22%2F%3E%3CmxCell%20id%3D%221%22%20parent%3D%220%22%2F%3E%3CmxCell%20id%3D%222%22%20value%3D%22n%22%20style%3D%22text%3Bhtml%3D1%3Balign%3Dcenter%3BverticalAlign%3Dmiddle%3BwhiteSpace%3Dwrap%3Brounded%3D0%3B%22%20vertex%3D%221%22%20parent%3D%221%22%3E%3CmxGeometry%20x%3D%22-270%22%20y%3D%22320%22%20width%3D%2260%22%20height%3D%2230%22%20as%3D%22geometry%22%2F%3E%3C%2FmxCell%3E%3C%2Froot%3E%3C%2FmxGraphModel%3E&lt;/span&gt;" style="text;html=1;align=center;verticalAlign=middle;whiteSpace=wrap;rounded=0;" vertex="1" parent="1">
                    <mxGeometry x="-410" y="490" width="60" height="30" as="geometry"/>
                </mxCell>
                <mxCell id="90" value="n" style="text;html=1;align=center;verticalAlign=middle;whiteSpace=wrap;rounded=0;" vertex="1" parent="1">
                    <mxGeometry x="-190" y="450" width="60" height="30" as="geometry"/>
                </mxCell>
                <mxCell id="91" value="1" style="text;html=1;align=center;verticalAlign=middle;whiteSpace=wrap;rounded=0;" vertex="1" parent="1">
                    <mxGeometry x="-130" y="490" width="60" height="30" as="geometry"/>
                </mxCell>
                <mxCell id="92" value="n" style="text;html=1;align=center;verticalAlign=middle;whiteSpace=wrap;rounded=0;" vertex="1" parent="1">
                    <mxGeometry x="-700" y="420" width="60" height="30" as="geometry"/>
                </mxCell>
                <mxCell id="93" value="1" style="text;html=1;align=center;verticalAlign=middle;whiteSpace=wrap;rounded=0;" vertex="1" parent="1">
                    <mxGeometry x="-860" y="-230" width="60" height="30" as="geometry"/>
                </mxCell>
            </root>
        </mxGraphModel>
    </diagram>
</mxfile>